{"title":"Breaking Bad S05E07.HDTV.x264-HEX","uid":7596767,"size":177007736,"categoryP":"video","categoryS":"tv_shows","magnet":"?xt=urn:btih:0f0a567c1baa88a602150fc46a8edc9b8e480d67&amp;dn=Breaking+Bad+S05E07.HDTV.x264-HEX&amp;tr=udp%3A%2F%2Ftracker.openbittorrent.com%3A80&amp;tr=udp%3A%2F%2Fopen.demonii.com%3A1337&amp;tr=udp%3A%2F%2Ftracker.coppersurfer.tk%3A6969&amp;tr=udp%3A%2F%2Fexodus.desync.com%3A6969","seeders":6,"leechers":0,"uploader":"Heterodox","files":-1,"time":1346714137,"description":"Format : Flash Video\nFile size : 169 MiB\nDuration : 47mn 1s\nOverall bit rate : 502 Kbps\nTagging application : Yet Another Metadata Injector for FLV - Version 1.4\n\nVideo\nFormat : AVC\nFormat/Info : Advanced Video Codec\nFormat profile : &lt;a class=&quot;__cf_email__&quot; href=&quot;/cdn-cgi/l/email-protection&quot; data-cfemail=&quot;d991b0beb19995eaf7e9&quot;&gt;[email&amp;#160;protected]&lt;/a&gt;&lt;script data-cfhash='f9e31' type=&quot;text/javascript&quot;&gt;\n/* &lt;![CDATA[ */!function(){try{var t=&quot;currentScript&quot;in document?document.currentScript:function(){for(var t=document.getElementsByTagName(&quot;script&quot;),e=t.length;e--;)if(t[e].getAttribute(&quot;data-cfhash&quot;))return t[e]}();if(t&amp;&amp;t.previousSibling){var e,r,n,i,c=t.previousSibling,a=c.getAttribute(&quot;data-cfemail&quot;);if(a){for(e=&quot;&quot;,r=parseInt(a.substr(0,2),16),n=2;a.length-n;n+=2)i=parseInt(a.substr(n,2),16)^r,e+=String.fromCharCode(i);e=document.createTextNode(e),c.parentNode.replaceChild(e,c)}t.parentNode.removeChild(t);}}catch(u){}}()/* ]]&gt; */&lt;/script&gt;\nFormat settings, CABAC : Yes\nFormat settings, ReFrames : 4 frames\nCodec ID : 7\nDuration : 47mn 1s\nBit rate : 400 Kbps\nWidth : 720 pixels\nHeight : 406 pixels\nDisplay aspect ratio : 16:9\nFrame rate mode : Constant\nFrame rate : 23.976 fps\nColor space : YUV\nChroma subsampling : 4:2:0\nBit depth : 8 bits\nScan type : Progressive\nBits/(Pixel*Frame) : 0.057\nStream size : 134 MiB (80%)\n\nAudio\nFormat : AAC\nFormat/Info : Advanced Audio Codec\nFormat profile : LC\nCodec ID : 10\nDuration : 47mn 1s\nBit rate : 94.4 Kbps\nChannel(s) : 2 channels\nChannel positions : Front: L R\nSampling rate : 44.1 KHz\nCompression mode : Lossy\nDelay relative to video : 60ms\nStream size : 33.8 MiB (20%)","torrent":{"xt":"urn:btih:0f0a567c1baa88a602150fc46a8edc9b8e480d67","amp;dn":"Breaking+Bad+S05E07.HDTV.x264-HEX","amp;tr":["udp%3A%2F%2Ftracker.openbittorrent.com%3A80","udp%3A%2F%2Fopen.demonii.com%3A1337","udp%3A%2F%2Ftracker.coppersurfer.tk%3A6969","udp%3A%2F%2Fexodus.desync.com%3A6969"],"infoHash":"0f0a567c1baa88a602150fc46a8edc9b8e480d67","infoHashBuffer":{"type":"Buffer","data":[15,10,86,124,27,170,136,166,2,21,15,196,106,142,220,155,142,72,13,103]},"announce":[],"urlList":[]}}